# xmcd CD database file
#
# Track frame offsets:
#	150
#	9642
#	20343
#	32784
#	53160
#	68411
#	83943
#	96903
#	109424
#	125490
#
# Disc length: 1828 seconds
#
# Revision: 0
# Processed by: cddbd v1.5.1PL2 Copyright (c) Steve Scherf et al.
# Submitted via: Feurio! 1.68 - http://www.feurio.com
#
DISCID=7d07220a
DTITLE=Various Artist - Country Gospel Greats - 2
DYEAR=2003
DGENRE=Southern Gospel
TTITLE0=Skeeter Davis - Turn Your Radio On
TTITLE1=Ferlin Husky - Wings of a Dove
TTITLE2=Johnny Russell - Just a Closer Walk with Thee
TTITLE3=Judy Rodman - Bridge Over Troubled Water
TTITLE4=Mark Gray - Precious Memories
TTITLE5=Jack Greene - Why Me, Lord?
TTITLE6=David Houston - In the Garden
TTITLE7=Jan Howard - Just As I Am
TTITLE8=Bill Phillips - The Old Rugged Cross
TTITLE9=Mel McDaniel - When the Saints Go Marching In
EXTD=
EXTT0=
EXTT1=
EXTT2=
EXTT3=
EXTT4=
EXTT5=
EXTT6=
EXTT7=
EXTT8=
EXTT9=
PLAYORDER=
